<svg xmlns="http://www.w3.org/2000/svg" width="17" height="17" viewBox="0 0 17 17"><defs><style>.a{fill:#304de5;}</style></defs><g transform="translate(-0.273 0)"><path class="a" d="M.354,1.806l1.257,2.2a.314.314,0,0,0,.2.149l1.173.293L7,8.47l.444-.444L3.362,3.94a.313.313,0,0,0-.146-.083L2.089,3.575,1.019,1.7,1.937.783,3.812,1.855l.283,1.127a.313.313,0,0,0,.083.146L8.263,7.213l.444-.444L4.684,2.746,4.391,1.574a.315.315,0,0,0-.149-.2L2.042.12a.314.314,0,0,0-.377.051L.408,1.428A.314.314,0,0,0,.354,1.806Zm0,0" transform="translate(-0.039 -0.076)"/><path class="a" d="M181.339,174.163l-6.914,6.914-.444-.444,6.914-6.914Zm0,0" transform="translate(-168.889 -168.901)"/><path class="a" d="M51.165,398.988a.314.314,0,0,0-.269-.152H49.01a.314.314,0,0,0-.269.152L47.8,400.56a.314.314,0,0,0,0,.324l.943,1.571a.314.314,0,0,0,.269.152H50.9a.314.314,0,0,0,.269-.152l.943-1.571a.314.314,0,0,0,0-.324Zm-.447,2.99h-1.53l-.754-1.257.754-1.257h1.53l.754,1.257Zm0,0" transform="translate(-45.908 -387.5)"/><path class="a" d="M13.868,6.8a3.387,3.387,0,0,0,3.294-4.22.283.283,0,0,0-.475-.132L14.924,4.208l-1.4-.466-.466-1.4L14.822.58A.283.283,0,0,0,14.689.1,3.388,3.388,0,0,0,10.469,3.4a3.324,3.324,0,0,0,.069.664l-6.2,6.2a3.341,3.341,0,0,0-.664-.069,3.4,3.4,0,1,0,3.4,3.4A3.333,3.333,0,0,0,7,12.931l1.485-1.485.649.649a.283.283,0,0,0,.4,0l.142-.142a.318.318,0,0,1,.45.449h0l-.142.142a.283.283,0,0,0,0,.4l3.378,3.378a2.286,2.286,0,1,0,3.247-3.218l-.015-.015L13.218,9.713a.283.283,0,0,0-.4,0l-.142.142a.318.318,0,0,1-.45-.449h0l.142-.142a.283.283,0,0,0,0-.4l-.649-.649L13.2,6.729A3.333,3.333,0,0,0,13.868,6.8Zm1.113,9.629a1.721,1.721,0,0,1-.6-.11L16.59,14.1a1.717,1.717,0,0,1-1.61,2.322ZM11.772,9.066a.884.884,0,0,0,1.246,1.244L16.2,13.491c.034.035.067.071.1.108l-2.421,2.421c-.037-.031-.074-.063-.108-.1l-3.181-3.181A.884.884,0,0,0,9.338,11.5l-.453-.453,2.434-2.43Zm1.144-2.848L6.491,12.641a.284.284,0,0,0-.075.269,2.851,2.851,0,1,1-2.059-2.06.286.286,0,0,0,.269-.075l6.423-6.423a.283.283,0,0,0,.074-.269A2.818,2.818,0,0,1,14.029.572L12.535,2.066a.283.283,0,0,0-.069.29l.566,1.7a.283.283,0,0,0,.179.179l1.7.566a.283.283,0,0,0,.29-.068l1.494-1.494c0,.054.005.108.005.161a2.818,2.818,0,0,1-3.517,2.744.283.283,0,0,0-.269.074h0Zm0,0" transform="translate(0 0)"/><path class="a" d="M386.478,385.768l-.444.444-3.143-3.143.444-.444Zm0,0" transform="translate(-371.818 -371.826)"/></g></svg>