<svg xmlns="http://www.w3.org/2000/svg" width="36" height="36" viewBox="0 0 36 36"><defs><style>.a,.d{fill:none;}.a{stroke:#fff;}.b{fill:#fff;}.c{stroke:none;}</style></defs><g transform="translate(-1261 -6753)"><g class="a" transform="translate(1261 6753)"><circle class="c" cx="18" cy="18" r="18"/><circle class="d" cx="18" cy="18" r="17.5"/></g><path class="b" d="M3.134,14H.231V4.654h2.9ZM1.681,3.379a1.689,1.689,0,1,1,1.681-1.7A1.7,1.7,0,0,1,1.681,3.379ZM14,14H11.1V9.45c0-1.084-.022-2.475-1.509-2.475-1.509,0-1.74,1.178-1.74,2.4V14h-2.9V4.654H7.736V5.929h.041a3.05,3.05,0,0,1,2.746-1.509C13.46,4.419,14,6.354,14,8.866V14Z" transform="translate(1272 6764)"/></g></svg>