<svg xmlns="http://www.w3.org/2000/svg" width="18" height="20" viewBox="0 0 18 20"><defs><style>.a{fill:#304de5;}</style></defs><g transform="translate(0 0)"><path class="a" d="M33.873,4.412,25.154.029a.271.271,0,0,0-.245,0L16.191,4.412a.294.294,0,0,0-.159.264V15.323a.294.294,0,0,0,.159.264L24.91,19.97a.271.271,0,0,0,.245,0l8.719-4.384a.294.294,0,0,0,.159-.264V4.676A.294.294,0,0,0,33.873,4.412ZM25.032.618,33.1,4.676l-2.34,1.176a.277.277,0,0,0-.048-.031L22.7,1.791Zm-2.968,1.5,8.06,4.053L28.473,7,20.417,2.954ZM30.313,6.73V9.8l-1.542.775V7.506Zm3.157,8.409-8.156,4.1v-10l1.945-.978a.3.3,0,0,0,.131-.391.276.276,0,0,0-.376-.136l-1.982,1-.78-.392a.276.276,0,0,0-.376.136.3.3,0,0,0,.131.391l.743.374v10l-8.156-4.1v-10l6.211,3.123a.271.271,0,0,0,.122.029.28.28,0,0,0,.253-.166.3.3,0,0,0-.131-.391L16.96,4.676l2.794-1.4L28.2,7.52l0,.005v3.516a.3.3,0,0,0,.132.248.272.272,0,0,0,.272.016l2.1-1.058a.294.294,0,0,0,.159-.264V6.447l2.594-1.3Z" transform="translate(-16.032 0.001)"/></g></svg>