<svg xmlns="http://www.w3.org/2000/svg" width="36" height="36" viewBox="0 0 36 36"><defs><style>.a,.d{fill:none;}.a{stroke:#304de5;}.b{fill:#304de5;}.c{stroke:none;}</style></defs><g transform="translate(-285 -5048)"><g class="a" transform="translate(285 5048)"><circle class="c" cx="18" cy="18" r="18"/><circle class="d" cx="18" cy="18" r="17.5"/></g><path class="b" d="M7,0a7,7,0,1,0,7,7A7.021,7.021,0,0,0,7,0ZM7,1.75A5.25,5.25,0,1,1,1.75,7,5.243,5.243,0,0,1,7,1.75ZM6.125,3.5V7.385l.28.227.875.875.6.665,1.26-1.26L8.47,7.3l-.595-.6V3.535H6.125Z" transform="translate(296 5059)"/></g></svg>