<svg xmlns="http://www.w3.org/2000/svg" width="36" height="36" viewBox="0 0 36 36"><defs><style>.a,.d{fill:none;}.a{stroke:#304de5;}.b{fill:#304de5;}.c{stroke:none;}</style></defs><g transform="translate(-231 -5158)"><g class="a" transform="translate(231 5158)"><circle class="c" cx="18" cy="18" r="18"/><circle class="d" cx="18" cy="18" r="17.5"/></g><g transform="translate(236.625 5162.125)"><path class="b" d="M21.228,10.339l-4.656,4.534a.078.078,0,0,0,0,.116l3.258,3.317a.52.52,0,0,1,0,.761.583.583,0,0,1-.8,0l-3.245-3.305a.092.092,0,0,0-.125,0l-.792.769a3.565,3.565,0,0,1-2.484,1A3.635,3.635,0,0,1,9.852,16.5l-.762-.74a.092.092,0,0,0-.125,0L5.72,19.067a.583.583,0,0,1-.8,0,.52.52,0,0,1,0-.761l3.258-3.317a.085.085,0,0,0,0-.116l-4.66-4.534a.086.086,0,0,0-.147.058v9.071A1.359,1.359,0,0,0,4.76,20.792H19.99a1.359,1.359,0,0,0,1.385-1.324V10.4A.087.087,0,0,0,21.228,10.339Z" transform="translate(0 -0.917)"/><path class="b" d="M12.695,15.908a2.334,2.334,0,0,0,1.69-.719l6.783-7.006a1.347,1.347,0,0,0-.856-.307H5.082a1.338,1.338,0,0,0-.856.307l6.783,7.006A2.334,2.334,0,0,0,12.695,15.908Z" transform="translate(-0.32)"/></g></g></svg>