<svg xmlns="http://www.w3.org/2000/svg" width="26.68" height="7.923" viewBox="0 0 26.68 7.923"><defs><style>.a,.b{fill:#304de5;}.a{stroke:rgba(0,0,0,0);}</style></defs><g transform="translate(60.334 -3727.577)"><path class="a" d="M-371.1,100.3c-.413,1.149-.774,2.317-1.254,3.442a1.365,1.365,0,0,1-.931.714c-.261.024-.7-.4-.84-.7-.353-.8-.57-1.655-.86-2.482a2.492,2.492,0,0,0-2.521-1.889,2.525,2.525,0,0,0-2.541,1.876c-.305.878-.55,1.776-.909,2.634a1.229,1.229,0,0,1-.786.581c-.217.047-.565-.179-.762-.366a1.6,1.6,0,0,1-.279-.652,24.251,24.251,0,0,0-.928-2.626,2.549,2.549,0,0,0-.727-.9h0l-.015-.01a1.15,1.15,0,0,0-.158-.093,1.288,1.288,0,0,0-.374-.149s-1.1.268-1.3,1.175a1.342,1.342,0,0,1,1.255,1.189c.212.791.513,1.564.8,2.337a2.536,2.536,0,0,0,2.407,1.722,2.536,2.536,0,0,0,2.494-1.721c.319-.874.551-1.778.928-2.629.146-.331.58-.76.89-.764s.738.432.881.761c.382.876.618,1.806.951,2.7a2.528,2.528,0,0,0,2.383,1.65,2.612,2.612,0,0,0,2.5-1.633c.224-.569.4-1.154.606-1.73.417-1.17.84-2.339,1.266-3.523C-370.623,98.984-370.626,98.983-371.1,100.3Z" transform="translate(334.591 3628.903)"/><path class="b" d="M-425.349,99.583A2.5,2.5,0,0,0-428.517,101c-.336.87-.56,1.777-.943,2.628a1.631,1.631,0,0,1-.932.867c-.65.147-.846-.4-1.014-.872-.393-1.1-.809-2.2-1.218-3.3-.467-1.254-.468-1.254-1.968-1.164a1.884,1.884,0,0,0-.3.1c.736,1.9,1.4,3.828,2.245,5.694a2.327,2.327,0,0,0,2.438,1.144,2.434,2.434,0,0,0,2.23-1.461c.344-.838.6-1.7.907-2.555C-426.733,101.145-426.522,100.136-425.349,99.583Z" transform="translate(374.561 3628.878)"/></g></svg>