<svg xmlns="http://www.w3.org/2000/svg" width="570" height="167" viewBox="0 0 570 167"><defs><style>.a{opacity:0.697;}.b{fill:#edeff8;}</style></defs><g class="a" transform="translate(434.895 -99.097)"><path class="b" d="M-50.01,127.684c-9.158,27.418-17.152,55.282-27.779,82.121C-80.794,217.4-90.84,226.1-98.4,226.842c-5.778.567-15.611-9.454-18.6-16.787-7.808-19.151-12.625-39.482-19.04-59.215-9.856-30.315-28.267-45-55.84-45.06-27.382-.064-46.712,15.131-56.282,44.754-6.766,20.94-12.186,42.364-20.143,62.83-2.4,6.168-10.714,12.283-17.412,13.864-4.8,1.131-12.511-4.281-16.885-8.74-3.62-3.695-4.459-10.2-6.179-15.566-6.713-20.955-11.664-42.662-20.566-62.645-3.284-7.374-9.482-16.277-16.1-21.393l0,0-.328-.231a25.18,25.18,0,0,0-3.49-2.228c-2.487-1.471-5.714-3.135-8.284-3.559,0,0-24.419,6.384-28.736,28.023,17.5,1.7,23.968,13.009,27.794,28.356,4.707,18.879,11.355,37.307,17.656,55.762,8.7,25.459,28.679,40.609,53.322,41.082,25.231.484,46.346-14.87,55.241-41.063,7.075-20.841,12.205-42.417,20.551-62.717,3.242-7.893,12.846-18.122,19.7-18.236,6.595-.11,16.34,10.305,19.521,18.156,8.471,20.909,13.681,43.09,21.073,64.464,8.349,24.15,28.713,38.831,52.8,39.372,24.258.545,46.483-14.817,55.3-38.96,4.962-13.58,8.879-27.535,13.43-41.267,9.246-27.917,18.605-55.8,28.034-84.046C-39.479,96.416-39.559,96.39-50.01,127.684Z" transform="translate(136.961 0)"/><path class="b" d="M-229.98,110c-30.908-9.178-57.915,4.686-68.011,33.763-7.207,20.758-12.013,42.4-20.25,62.708-3.432,8.463-11.929,18.648-20.014,20.682-13.959,3.509-18.155-9.515-21.777-20.8-8.436-26.3-17.36-52.445-26.136-78.633-10.024-29.925-10.047-29.929-42.249-27.769-1.183.079-2.325.851-6.478,2.451,15.8,45.29,30.083,91.347,48.2,135.873,8.4,20.648,29.629,29.255,52.33,27.293,22.422-1.94,39.9-13.228,47.875-34.856,7.375-20.005,12.883-40.68,19.479-60.973C-259.7,147.266-255.174,123.176-229.98,110Z" transform="translate(0 0.087)"/></g></svg>