<svg xmlns="http://www.w3.org/2000/svg" width="569.294" height="167.992" viewBox="0 0 569.294 167.992"><defs><style>.a{mix-blend-mode:multiply;isolation:isolate;}.b,.c{fill:#304de5;}.b{stroke:rgba(0,0,0,0);}.c{stroke:#707070;}</style></defs><g class="a" transform="translate(60.965 -3727.509)"><path class="b" d="M-51.2,127.684c-9.125,27.418-17.092,55.282-27.68,82.121-2.995,7.6-13.006,16.292-20.539,17.037-5.758.567-15.556-9.454-18.532-16.787-7.78-19.151-12.58-39.482-18.973-59.215-9.821-30.315-28.167-45-55.642-45.06-27.285-.064-46.547,15.131-56.083,44.754-6.742,20.94-12.143,42.364-20.072,62.831-2.391,6.168-10.676,12.283-17.35,13.864-4.781,1.131-12.466-4.281-16.826-8.74-3.607-3.695-4.443-10.2-6.157-15.566-6.689-20.955-11.623-42.662-20.493-62.645-3.272-7.374-9.449-16.277-16.043-21.393l0,0-.327-.231a25.088,25.088,0,0,0-3.478-2.227c-2.478-1.471-5.694-3.135-8.255-3.559,0,0-24.332,6.384-28.634,28.023,17.441,1.7,23.884,13.009,27.7,28.356,4.69,18.879,11.315,37.307,17.593,55.762,8.666,25.459,28.577,40.609,53.134,41.082,25.141.484,46.182-14.87,55.045-41.063,7.05-20.841,12.162-42.417,20.478-62.717,3.231-7.893,12.8-18.122,19.634-18.236,6.571-.11,16.282,10.305,19.452,18.156,8.441,20.909,13.633,43.09,21,64.464,8.32,24.15,28.612,38.831,52.609,39.372,24.172.545,46.319-14.817,55.106-38.96,4.945-13.58,8.848-27.535,13.382-41.267,9.213-27.917,18.54-55.8,27.935-84.046C-40.705,96.416-40.785,96.39-51.2,127.684Z" transform="translate(510.882 3628.903)"/><path class="c" d="M-230.688,110c-30.8-9.178-57.715,4.686-67.776,33.763-7.182,20.758-11.971,42.4-20.18,62.709-3.42,8.464-11.888,18.648-19.945,20.682-13.911,3.509-18.092-9.515-21.7-20.8-8.407-26.3-17.3-52.445-26.046-78.634-9.989-29.925-10.012-29.929-42.1-27.769-1.179.079-2.317.851-6.455,2.451,15.749,45.29,29.979,91.348,48.033,135.874,8.373,20.648,29.527,29.256,52.149,27.293,22.345-1.94,39.767-13.228,47.71-34.856,7.349-20.005,12.839-40.68,19.412-60.973C-260.31,147.266-255.794,123.176-230.688,110Z" transform="translate(374.561 3628.99)"/></g></svg>