<svg xmlns="http://www.w3.org/2000/svg" width="74" height="74" viewBox="0 0 74 74"><defs><style>.a{fill:#fff;stroke:#304de5;stroke-width:3px;}.b{fill:#304de5;}.c{stroke:none;}.d{fill:none;}</style></defs><g transform="translate(-623 -4111)"><g class="a" transform="translate(623 4111)"><circle class="c" cx="37" cy="37" r="37"/><circle class="d" cx="37" cy="37" r="35.5"/></g><path class="b" d="M8.048,3.585l-.694-.712a.734.734,0,0,0-1.059,0L.22,9.1a.78.78,0,0,0,0,1.087l6.074,6.232a.734.734,0,0,0,1.059,0l.694-.712a.784.784,0,0,0-.012-1.1L4.27,10.93h8.98A.758.758,0,0,0,14,10.16V9.134a.758.758,0,0,0-.75-.769H4.27l3.765-3.68A.779.779,0,0,0,8.048,3.585Z" transform="translate(653 4138.353)"/></g></svg>