<svg xmlns="http://www.w3.org/2000/svg" width="38" height="38" viewBox="0 0 38 38"><defs><style>.a{fill:#304de5;}.b{fill:none;stroke:#fff;stroke-linecap:round;stroke-linejoin:round;}</style></defs><g transform="translate(-1301 -26)"><circle class="a" cx="19" cy="19" r="19" transform="translate(1301 26)"/><g transform="translate(1315 39)"><path class="b" d="M17,26.833V25.389A2.822,2.822,0,0,0,14.25,22.5H8.75A2.822,2.822,0,0,0,6,25.389v1.444" transform="translate(-6 -13.833)"/><path class="b" d="M17.222,7.389a2.761,2.761,0,0,1-2.611,2.889A2.761,2.761,0,0,1,12,7.389,2.761,2.761,0,0,1,14.611,4.5a2.761,2.761,0,0,1,2.611,2.889Z" transform="translate(-9.111 -4.5)"/></g></g></svg>