<svg xmlns="http://www.w3.org/2000/svg" width="18" height="18" viewBox="0 0 18 18"><defs><style>.a{fill:none;stroke:#fff;stroke-linecap:round;stroke-linejoin:round;}</style></defs><g transform="translate(-1 -1)"><path class="a" d="M13.619,30.81a.81.81,0,1,1-.81-.81A.81.81,0,0,1,13.619,30.81Z" transform="translate(-5.117 -13.119)"/><path class="a" d="M30.119,30.81a.81.81,0,1,1-.81-.81A.81.81,0,0,1,30.119,30.81Z" transform="translate(-13.238 -13.119)"/><path class="a" d="M1.5,1.5H4.591L6.662,12.34a1.564,1.564,0,0,0,1.545,1.3h7.511a1.564,1.564,0,0,0,1.545-1.3L18.5,5.548H5.364"/></g></svg>