<svg xmlns="http://www.w3.org/2000/svg" width="20" height="18" viewBox="0 0 20 18"><defs><style>.a{fill:#304de5;}</style></defs><g transform="translate(0 -1)"><g transform="translate(0 1)"><path class="a" d="M17.708,19H2.292A2.273,2.273,0,0,1,0,16.75V3.25A2.273,2.273,0,0,1,2.292,1H17.708A2.273,2.273,0,0,1,20,3.25v13.5A2.273,2.273,0,0,1,17.708,19ZM2.292,2.227A1.034,1.034,0,0,0,1.25,3.25v13.5a1.034,1.034,0,0,0,1.042,1.023H17.708A1.034,1.034,0,0,0,18.75,16.75V3.25a1.034,1.034,0,0,0-1.042-1.023Z" transform="translate(0 -1)"/></g><g transform="translate(0 3.842)"><path class="a" d="M19.375,5.857H.625a.681.681,0,0,1,0-1.357h18.75a.681.681,0,0,1,0,1.357Z" transform="translate(0 -4.5)"/></g><g transform="translate(11.086 7.816)"><path class="a" d="M15.987,12.665H14.178a.678.678,0,0,1,0-1.357h1.13v-1.13a.678.678,0,1,1,1.357,0v1.809A.679.679,0,0,1,15.987,12.665Z" transform="translate(-13.5 -9.5)"/></g><g transform="translate(5.748 12.226)"><path class="a" d="M7.678,18.165A.679.679,0,0,1,7,17.487V15.678A.679.679,0,0,1,7.678,15H9.487a.678.678,0,1,1,0,1.357H8.357v1.13A.679.679,0,0,1,7.678,18.165Z" transform="translate(-7 -15)"/></g><g transform="translate(5.668 7.368)"><path class="a" d="M7.868,13.07a.714.714,0,0,1-.2-.029.679.679,0,0,1-.451-.847,4.515,4.515,0,0,1,8.3-.8.678.678,0,1,1-1.2.636,3.158,3.158,0,0,0-5.807.559A.677.677,0,0,1,7.868,13.07Z" transform="translate(-7.189 -9)"/></g><g transform="translate(5.92 11.746)"><path class="a" d="M11.571,18.57a4.5,4.5,0,0,1-3.982-2.395.678.678,0,1,1,1.2-.636,3.158,3.158,0,0,0,5.808-.563.678.678,0,0,1,1.3.4,4.505,4.505,0,0,1-4.319,3.191Z" transform="translate(-7.509 -14.5)"/></g></g></svg>